HIERARCHY
ROOT hip
{
	OFFSET 0.000000 0.000000 0.000000 
	CHANNELS 6 Xposition Yposition Zposition Xrotation Zrotation Yrotation
	JOINT abdomen
	{
		OFFSET 0.000000 3.402643 0.000000 
		CHANNELS 3 Xrotation Zrotation Yrotation
		JOINT chest
		{
			OFFSET 0.000000 8.438565 -0.680529 
			CHANNELS 3 Xrotation Zrotation Yrotation
			JOINT neck
			{
				OFFSET 0.000000 10.207942 -0.272212 
				CHANNELS 3 Xrotation Zrotation Yrotation
				JOINT head
				{
					OFFSET 0.000000 3.130431 0.000000 
					CHANNELS 3 Xrotation Zrotation Yrotation
					End Site
					{
						OFFSET 0.000000 3.130435 0.000000 
					}
				}
			}
			JOINT lCollar
			{
				OFFSET 3.470700 6.669187 -0.816635 
				CHANNELS 3 Yrotation Zrotation Xrotation
				JOINT lShldr
				{
					OFFSET 3.198488 0.000000 0.000000 
					CHANNELS 3 Zrotation Yrotation Xrotation
					JOINT lForeArm
					{
						OFFSET 10.139888 0.000000 0.000000 
						CHANNELS 3 Yrotation Zrotation Xrotation
						JOINT lHand
						{
							OFFSET 8.370511 0.000000 0.000000 
							CHANNELS 3 Zrotation Yrotation Xrotation
							End Site
							{
								OFFSET 4.083176 0.000000 0.000000 
							}
						}
					}
				}
			}
			JOINT rCollar
			{
				OFFSET -3.470700 6.669187 -0.816635 
				CHANNELS 3 Yrotation Zrotation Xrotation
				JOINT rShldr
				{
					OFFSET -3.198488 0.000000 0.000000 
					CHANNELS 3 Zrotation Yrotation Xrotation
					JOINT rForeArm
					{
						OFFSET -10.139888 0.000000 0.000000 
						CHANNELS 3 Yrotation Zrotation Xrotation
						JOINT rHand
						{
							OFFSET -8.370511 0.000000 0.000000 
							CHANNELS 3 Zrotation Yrotation Xrotation
							End Site
							{
								OFFSET -4.083176 0.000000 0.000000 
							}
						}
					}
				}
			}
		}
	}
	JOINT lThigh
	{
		OFFSET 5.308129 -1.633274 1.361059 
		CHANNELS 3 Xrotation Zrotation Yrotation
		JOINT lShin
		{
			OFFSET -2.041588 -20.007561 0.000000 
			CHANNELS 3 Xrotation Zrotation Yrotation
			JOINT lFoot
			{
				OFFSET 0.000000 -19.190928 -1.224953 
				CHANNELS 3 Xrotation Yrotation Zrotation
				End Site
				{
					OFFSET 0.000000 -2.449906 4.627600 
				}
			}
		}
	}
	JOINT rThigh
	{
		OFFSET -5.308129 -1.633274 1.361059 
		CHANNELS 3 Xrotation Zrotation Yrotation
		JOINT rShin
		{
			OFFSET 2.041588 -20.007561 0.000000 
			CHANNELS 3 Xrotation Zrotation Yrotation
			JOINT rFoot
			{
				OFFSET 0.000000 -19.190928 -1.224953 
				CHANNELS 3 Xrotation Yrotation Zrotation
				End Site
				{
					OFFSET 0.000000 -2.449906 4.627600 
				}
			}
		}
	}
}
MOTION
Frames: 15
Frame Time: 0.033333
-0.176845 50.675014 2.592327 -3.847710 0.302052 -0.459768 0.000000 0.000000 0.000000 0.683597 0.185534 -0.388380 3.453475 -0.082258 -0.859744 5.703094 -0.263334 0.062170 -0.890819 8.368877 -1.702102 -5.963794 13.844817 -6.152749 -7.816410 -3.814508 2.648301 2.033708 5.313846 -22.358625 -0.951909 -8.408754 -1.426535 3.653700 -11.994742 2.678973 -1.646056 1.267620 2.442787 -7.233395 3.873666 -22.404604 4.789083 4.810079 1.806041 9.185341 -3.213261 24.678122 -8.201445 0.214093 -2.960613 3.982277 -6.481434 -5.281732 8.945511 3.406982 3.255610 -7.082006 -0.128871 2.241278 
-0.199873 50.682308 2.573476 -3.847714 0.311796 -0.421360 0.000000 0.000000 0.000000 0.703127 0.146473 -0.330209 3.460287 0.049380 -0.891339 5.683492 -0.477894 0.102500 -0.884303 8.583314 -1.683118 -6.313833 13.704930 -6.464568 -8.224170 -3.688741 2.645665 2.031272 5.352833 -22.094950 -0.897356 -8.322759 -1.429676 3.660708 -12.102396 2.856105 -1.645064 1.326140 2.445542 -7.333019 4.190022 -23.054605 4.840721 4.841934 1.807707 9.025875 -3.217171 24.707918 -8.083327 0.206191 -2.952560 3.992298 -6.443490 -5.258000 8.866500 3.426423 3.211885 -6.994839 -0.125141 2.210344 
-0.218749 50.683949 2.564781 -3.886763 0.272809 -0.428691 0.000000 0.000000 0.000000 0.732427 0.205061 -0.368437 3.539561 -0.057279 -0.881777 5.556586 -0.341314 0.066996 -0.946451 8.447017 -1.612227 -6.292361 13.842396 -6.317701 -8.351570 -3.695486 2.639404 1.996689 5.595304 -22.378849 -0.806634 -8.315726 -1.345348 3.613285 -12.073100 2.749173 -1.645725 1.287126 2.443705 -7.310876 4.152346 -22.731310 4.797967 4.828550 1.768355 9.143726 -3.178734 24.849054 -8.122854 0.213437 -2.960270 4.037682 -6.428842 -5.295766 8.850491 3.404865 3.317124 -6.974015 -0.123220 2.232453 
-0.239891 50.673630 2.563031 -3.935609 0.321506 -0.559228 0.000000 0.000000 0.000000 0.781253 0.146471 -0.300712 3.509452 -0.110323 -0.747971 5.761665 -0.351130 0.105320 -0.808024 8.412439 -1.551527 -6.473258 13.781934 -6.521544 -8.642143 -3.582197 2.642450 2.525156 6.606669 -22.371634 -0.638005 -8.330636 -1.278991 3.508735 -12.025049 3.068681 -1.768974 1.522894 2.464652 -7.261387 3.999040 -23.050829 4.879339 4.832026 1.825305 9.191500 -3.248424 24.909101 -8.189911 0.219300 -3.001026 4.019563 -6.450076 -5.288141 8.948330 3.375537 3.546191 -7.093025 -0.116804 2.193339 
-0.278273 50.685085 2.579328 -4.091887 0.379889 -0.857254 0.000000 0.000000 0.000000 0.849613 0.165997 -0.114698 3.733839 -0.498427 -0.457313 5.576166 -0.117024 -0.169592 -0.694886 7.850004 -1.415278 -6.154469 13.686581 -6.388303 -8.361609 -3.714037 2.646297 2.773911 5.898162 -24.096909 -0.452982 -9.031206 -1.150736 4.192726 -12.081010 2.846927 -1.770770 1.415618 2.459358 -7.188458 4.082184 -22.500488 5.497091 4.697044 1.801962 8.469908 -3.246689 25.583641 -7.903738 0.216884 -3.021193 4.197265 -6.550844 -5.375085 8.933276 3.347789 4.040464 -7.065485 -0.111314 2.142166 
-0.301303 50.688606 2.553517 -4.150465 0.340901 -0.884112 0.000000 0.000000 0.000000 0.917973 0.165994 -0.143796 3.830329 -0.303914 -0.543277 5.439372 -0.409531 0.022638 -0.658662 8.306341 -1.280925 -6.736818 13.673497 -6.407380 -8.468678 -3.692170 2.644489 2.971689 5.842097 -23.668629 -0.307428 -8.496808 -1.023982 3.592659 -12.122082 2.810717 -1.713080 1.346882 2.446345 -7.246411 4.068546 -22.659849 5.122405 4.684084 1.723304 9.255729 -3.193506 25.651087 -8.224441 0.203599 -2.879749 4.273516 -6.517953 -5.410455 8.856307 3.326730 4.082775 -6.996529 -0.127121 2.177377 
-0.317788 50.690247 2.547099 -4.101627 0.321440 -0.921487 0.000000 0.000000 0.000000 0.908207 0.156230 -0.163512 3.801485 -0.296759 -0.544710 5.537035 -0.399817 0.031184 -0.628619 8.188931 -1.319218 -6.420980 13.755849 -5.823899 -8.309943 -4.022378 2.658308 3.174467 5.708103 -24.333090 -0.250769 -8.390116 -1.039967 3.384989 -12.054402 2.840731 -1.732206 1.385656 2.457954 -6.776862 4.236670 -22.282759 5.385161 4.732566 1.740570 8.647399 -3.151092 25.704905 -7.931372 0.216973 -3.053584 4.196201 -6.451817 -5.325499 8.883473 3.347414 3.968927 -6.978206 -0.111315 2.120250 
-0.346857 50.684326 2.523163 -4.072338 0.340934 -0.932476 0.000000 0.000000 0.000000 0.927736 0.107408 -0.134961 3.810852 -0.251653 -0.482969 5.654190 -0.487634 0.132544 -0.611317 8.324724 -1.280942 -6.513321 13.793655 -6.004210 -8.394846 -3.894979 2.660620 2.959393 5.577123 -23.918957 -0.253295 -8.321843 -1.003192 3.271856 -12.006259 3.090346 -1.778738 1.523069 2.464666 -7.263340 4.028272 -22.552778 5.165546 4.794991 1.793010 9.020082 -3.162115 25.542305 -8.037609 0.212347 -3.078057 4.179391 -6.396627 -5.230907 8.779664 3.328520 3.834544 -6.979700 -0.116562 2.096497 
-0.362210 50.691124 2.440913 -3.720722 0.185156 -0.549150 0.000000 0.000000 0.000000 0.800786 0.205058 -0.280302 3.705459 -0.077851 -0.785678 5.673709 -0.516902 0.104578 -0.853899 8.598102 -1.482818 -6.545092 13.871228 -6.096206 -8.432662 -3.827456 2.648134 2.689104 5.550371 -22.340799 -0.552035 -7.942291 -1.210377 2.977392 -11.967918 3.029164 -1.672639 1.443117 2.460800 -7.469770 4.180913 -22.583319 4.485311 5.082017 1.833241 9.291446 -3.084863 24.943533 -7.985682 0.214616 -3.130231 3.871880 -6.136180 -5.061282 8.540709 3.454550 3.230588 -6.756966 -0.092331 1.988497 
-0.365355 50.697166 2.420336 -3.681669 0.224146 -0.444110 0.000000 0.000000 0.000000 0.830086 0.244115 -0.269859 3.706734 -0.140211 -0.659161 5.839727 -0.526730 0.162145 -0.781241 8.654099 -1.452277 -6.677674 13.712955 -6.394841 -8.088259 -3.730654 2.646351 1.235190 4.873345 -22.532022 -0.743195 -8.212256 -1.190567 3.087613 -11.899106 2.914397 -1.634239 1.403401 2.458968 -7.450234 4.182216 -22.719006 4.309886 5.062320 1.796416 9.439848 -3.077221 24.651196 -8.023477 0.207994 -2.972668 3.852461 -6.145800 -5.092134 8.500541 3.512418 3.104381 -6.720385 -0.090878 1.924833 
-0.390777 50.697414 2.375348 -3.623111 0.341114 -0.275505 0.000000 0.000000 0.000000 0.908217 0.322225 -0.248743 3.546639 -0.705272 -0.458740 6.249994 0.136603 -0.142333 -0.803334 7.802591 -1.338071 -5.806980 13.728004 -6.251837 -8.342818 -3.752639 2.651914 2.175447 4.911685 -22.500452 -1.147611 -9.202847 -1.089687 3.803872 -11.788907 2.505897 -1.588637 1.198280 2.439825 -7.017188 4.162055 -22.217693 4.262233 4.975626 1.700023 9.318541 -3.070808 24.444609 -7.956351 0.201577 -2.932179 3.784334 -6.203374 -5.128479 8.470613 3.442350 2.913289 -6.747699 -0.102360 1.994644 
-0.428782 50.695404 2.332235 -3.564549 0.419110 -0.231185 0.000000 0.000000 0.000000 0.937511 0.283165 -0.210162 3.636122 -0.863131 -0.396721 6.240211 0.253690 -0.176486 -0.961123 7.688087 -1.276490 -5.551006 13.885597 -6.229979 -8.020553 -3.761306 2.645593 2.028354 5.088472 -22.688658 -1.124039 -9.340959 -1.042162 3.689349 -11.946078 2.874377 -1.635136 1.335717 2.446020 -7.536839 4.156866 -22.743181 4.195138 4.967130 1.700913 9.222899 -3.053421 24.520821 -7.808416 0.225637 -2.984232 3.729323 -6.170547 -4.987565 8.318259 3.338042 2.682650 -6.717584 -0.099970 2.006198 
-0.451308 50.694775 2.286983 -3.662242 0.487284 -0.167906 0.000000 0.000000 0.000000 1.044935 0.283156 -0.229162 3.870694 -0.803287 -0.314569 6.093750 0.029269 0.018248 -0.837751 7.867053 -1.064862 -5.557983 13.817779 -6.093489 -8.003026 -3.857494 2.654183 2.329898 5.547505 -22.837557 -1.118138 -9.520435 -0.804017 3.855027 -11.944876 2.434824 -1.541656 1.090096 2.435189 -7.596708 4.025631 -22.492197 4.076734 4.985661 1.755459 9.630615 -3.141016 24.008360 -8.042690 0.185393 -2.757944 3.843908 -6.216354 -5.118935 8.342431 3.404445 2.766129 -6.780565 -0.105201 1.918760 
-0.470310 50.698421 2.235336 -3.662334 0.633469 -0.050309 0.000000 0.000000 0.000000 1.093756 0.185513 -0.152677 4.099361 -0.501532 -0.389054 6.220648 -0.390287 0.192022 -0.815958 8.655748 -0.928596 -6.231322 13.657315 -6.284694 -8.227245 -3.832276 2.656779 2.341138 5.831963 -22.411484 -1.030142 -9.103642 -0.712537 3.381989 -12.337917 3.055118 -1.452455 1.166530 2.439136 -7.675494 4.030154 -22.974819 4.364382 4.902681 1.778129 9.018133 -3.199256 24.348707 -7.676838 0.186146 -2.808336 3.865181 -6.345290 -5.239913 8.337013 3.484150 2.945295 -6.833323 -0.099296 1.814840 
-0.501391 50.691502 2.206770 -3.701427 0.672423 0.024863 0.000000 0.000000 0.000000 1.152353 0.234328 -0.249153 4.369025 -0.702255 -0.252517 5.810545 -0.058524 0.276293 -0.894612 8.518502 -0.822397 -6.004277 13.912837 -6.184278 -8.177819 -3.804945 2.652694 2.289847 5.721137 -22.787981 -1.212366 -9.356770 -0.593169 3.402942 -11.907961 2.908308 -1.500104 1.235700 2.441938 -7.571904 3.802176 -22.686354 4.364244 4.940953 1.831379 9.026755 -3.188847 24.446358 -7.612675 0.191841 -2.912388 3.952025 -6.353528 -5.269282 8.226525 3.502332 2.851154 -6.873253 -0.093698 1.785499 
